<svg width="78" height="66" viewBox="0 0 78 66" fill="none" xmlns="http://www.w3.org/2000/svg">
<mask id="mask0_7_11" style="mask-type:luminance" maskUnits="userSpaceOnUse" x="5" y="11" width="43" height="46">
<path d="M5.17413 11.0968H47.3433V56.5161H5.17413V11.0968Z" fill="white"/>
</mask>
<g mask="url(#mask0_7_11)">
<mask id="mask1_7_11" style="mask-type:luminance" maskUnits="userSpaceOnUse" x="-1" y="9" width="63" height="57">
<path d="M61.9935 46.7621L15.4011 65.8387L-0.0454788 28.3004L46.547 9.22379L61.9935 46.7621Z" fill="white"/>
</mask>
<g mask="url(#mask1_7_11)">
<mask id="mask2_7_11" style="mask-type:luminance" maskUnits="userSpaceOnUse" x="-1" y="9" width="63" height="57">
<path d="M61.9935 46.7621L15.4011 65.8387L-0.0454788 28.3004L46.547 9.22379L61.9935 46.7621Z" fill="white"/>
</mask>
<g mask="url(#mask2_7_11)">
<path fill-rule="evenodd" clip-rule="evenodd" d="M31.2631 15.5887C36.7727 13.3337 42.2116 11.8639 47.1755 11.1623C43.8881 11.9597 40.4775 13.0625 37.0385 14.4698C19.8011 21.5272 8.44029 33.5958 11.662 41.4264C13.8539 46.753 22.2316 48.744 32.7941 47.253C19.6081 50.4637 8.46657 48.8135 5.88658 42.5423C2.66487 34.7147 14.0267 22.6462 31.2631 15.5887ZM43.0231 45.8135L43.0706 45.9284C36.1896 48.745 36.1492 50.0635 38.7211 56.3145L38.6059 56.3619C36.034 50.1109 35.0729 49.2026 28.1919 52.0202L28.1444 51.9052C35.0254 49.0877 35.0709 47.7712 32.499 41.5202L32.6142 41.4728C35.1861 47.7248 36.1421 48.63 43.0231 45.8135Z" fill="#004AAD"/>
</g>
</g>
</g>
<mask id="mask3_7_11" style="mask-type:luminance" maskUnits="userSpaceOnUse" x="32" y="9" width="41" height="44">
<path d="M32.597 9.03226H72.9552V52.3871H32.597V9.03226Z" fill="white"/>
</mask>
<g mask="url(#mask3_7_11)">
<mask id="mask4_7_11" style="mask-type:luminance" maskUnits="userSpaceOnUse" x="18" y="0" width="60" height="54">
<path d="M18.5895 18.2359L63.0304 0.0403214L77.7413 35.7913L33.3004 53.9869L18.5895 18.2359Z" fill="white"/>
</mask>
<g mask="url(#mask4_7_11)">
<mask id="mask5_7_11" style="mask-type:luminance" maskUnits="userSpaceOnUse" x="18" y="0" width="60" height="54">
<path d="M18.5895 18.2359L63.0304 0.0403214L77.7413 35.7913L33.3004 53.9869L18.5895 18.2359Z" fill="white"/>
</mask>
<g mask="url(#mask5_7_11)">
<path fill-rule="evenodd" clip-rule="evenodd" d="M47.9456 48.0161C42.6835 50.1704 37.4872 51.5756 32.7456 52.245C35.8854 51.4829 39.1445 50.4304 42.4299 49.0847C58.8951 42.3427 69.7497 30.8135 66.6715 23.3327C64.5776 18.245 56.5749 16.3427 46.4833 17.7671C59.0801 14.7006 69.7244 16.2772 72.1892 22.2671C75.2664 29.745 64.4119 41.2742 47.9456 48.0161ZM36.7121 19.1431L36.6666 19.0333C43.2404 16.3417 43.2788 15.0827 40.8221 9.11089L40.9312 9.06552C43.3889 15.0373 44.3065 15.9052 50.8803 13.2137L50.9258 13.3236C44.352 16.0151 44.3085 17.2722 46.7663 23.2439L46.6561 23.2893C44.1984 17.3165 43.2848 16.4516 36.7121 19.1431Z" fill="#004AAD"/>
</g>
</g>
</g>
<path d="M34.5579 40.7542V34.7502H37.6543C37.6189 34.6836 37.5795 34.6201 37.537 34.5607C37.4936 34.4992 37.4562 34.4427 37.4238 34.3913H35.6654C35.0642 33.5314 34.7458 32.6292 34.7115 31.6857C34.6761 30.7421 34.8489 29.9094 35.2289 29.1857C35.6574 28.3631 36.2031 27.7421 36.866 27.3228C37.5289 26.9014 38.2859 26.6211 39.1378 26.484C39.9917 26.3449 40.9093 26.2744 41.8906 26.2744H49.2516V32.0969H41.8906C41.3914 32.0969 41.0094 32.2734 40.7426 32.6252C40.4758 32.978 40.3757 33.351 40.4434 33.7461C40.5132 34.0556 40.6718 34.3389 40.9204 34.5969C41.171 34.855 41.5116 34.984 41.9431 34.984C42.4575 34.984 42.8264 34.8177 43.0507 34.484C43.2771 34.1484 43.3549 33.7744 43.2852 33.3631C43.2144 32.9498 42.982 32.6484 42.5858 32.4599H47.7519C48.3198 33.0597 48.7069 33.6897 48.912 34.351C49.1192 35.0123 49.193 35.6524 49.1344 36.2703C49.0747 36.8893 48.9161 37.4478 48.6574 37.9478C48.2259 38.7703 47.6751 39.3792 47.0041 39.7744C46.333 40.1695 45.566 40.4316 44.704 40.5607C43.844 40.6897 42.9234 40.7542 41.9431 40.7542H34.5579Z" fill="#004AAD"/>
<path d="M27.6506 22.6937H34.0051V40.7542H27.6506V22.6937Z" fill="#004AAD"/>
</svg>
