<svg width="72" height="84" viewBox="0 0 72 84" fill="none" xmlns="http://www.w3.org/2000/svg">
<g clip-path="url(#clip0_163_99935)">
<path d="M0.463645 33.3868C0.463645 22.9947 0.497795 13.1604 0.429497 3.32604C0.429497 1.52763 0.964462 0.83331 2.85394 0.83331C24.8332 0.87884 46.8125 0.878841 68.7918 0.844695C70.4992 0.844695 71.148 1.50487 71.1366 3.15531C71.091 12.7734 71.091 22.3915 71.0455 32.0209C71.0455 32.1803 70.8179 32.3396 70.6927 32.499C56.0436 20.3426 11.1289 21.9475 0.463645 33.3868Z" fill="black"/>
<path d="M71.0901 63.925C71.0901 66.873 71.147 69.5934 71.0787 72.3024C70.999 75.2391 68.825 76.6391 66.6054 77.8911C61.3809 80.8278 55.6101 82.1709 49.7823 82.8766C36.8179 84.4587 23.8989 84.3449 11.2417 80.4749C10.4108 80.2245 9.56855 79.9741 8.7604 79.6554C1.61229 76.8895 0.451293 75.1935 0.451294 67.6015C0.451294 66.4064 0.451294 65.2112 0.451294 63.7998C11.1621 71.517 23.3298 72.3935 35.7024 72.4276C48.0181 72.4618 60.1061 71.5512 71.0901 63.925Z" fill="black"/>
<path d="M71.0343 39.681C71.0343 43.2096 71.1595 46.1234 71.0001 49.0145C70.8749 51.3479 69.0082 52.5317 67.2212 53.6244C62.4748 56.5269 57.1706 57.8814 51.7754 58.644C39.38 60.3741 26.9846 60.431 14.7031 57.5399C13.4397 57.244 12.1535 56.9594 10.9355 56.5041C-0.970383 52.0536 0.0995631 50.6081 0.736969 39.9087C13.9177 52.0081 58.7869 51.2455 71.0343 39.681Z" fill="black"/>
</g>
<defs>
<clipPath id="clip0_163_99935">
<rect width="83" height="70.7526" fill="white" transform="translate(71.1367 0.833313) rotate(90)"/>
</clipPath>
</defs>
</svg>
